<svg width="30" height="30" viewBox="0 0 30 30" fill="none" xmlns="http://www.w3.org/2000/svg">
<path d="M15 1L15.3254 0.620372C15.1382 0.459876 14.8618 0.459876 14.6746 0.620372L15 1ZM1 13L0.674604 12.6204L0.5 12.77V13H1ZM11 29V29.5C11.2761 29.5 11.5 29.2761 11.5 29H11ZM19 29H18.5C18.5 29.2761 18.7239 29.5 19 29.5V29ZM29 13H29.5V12.77L29.3254 12.6204L29 13ZM3 29.5H11V28.5H3V29.5ZM29.3254 12.6204L15.3254 0.620372L14.6746 1.37963L28.6746 13.3796L29.3254 12.6204ZM14.6746 0.620372L0.674604 12.6204L1.3254 13.3796L15.3254 1.37963L14.6746 0.620372ZM11.5 29V23H10.5V29H11.5ZM18.5 23V29H19.5V23H18.5ZM19 29.5H27V28.5H19V29.5ZM29.5 27V13H28.5V27H29.5ZM0.5 13V27H1.5V13H0.5ZM15 19.5C16.933 19.5 18.5 21.067 18.5 23H19.5C19.5 20.5147 17.4853 18.5 15 18.5V19.5ZM15 18.5C12.5147 18.5 10.5 20.5147 10.5 23H11.5C11.5 21.067 13.067 19.5 15 19.5V18.5ZM27 29.5C28.3807 29.5 29.5 28.3807 29.5 27H28.5C28.5 27.8284 27.8284 28.5 27 28.5V29.5ZM3 28.5C2.17157 28.5 1.5 27.8284 1.5 27H0.5C0.5 28.3807 1.61929 29.5 3 29.5V28.5Z" fill="black"/>
</svg>
